<?xml version="1.0" encoding="utf-8"?>
<!-- Generator: Adobe Illustrator 18.1.0, SVG Export Plug-In . SVG Version: 6.00 Build 0)  -->
<svg version="1.1" id="Layer_1" xmlns="http://www.w3.org/2000/svg" xmlns:xlink="http://www.w3.org/1999/xlink" x="0px" y="0px"
	 viewBox="196 27.6 1224 548" enable-background="new 196 27.6 1224 548" xml:space="preserve">
<g>
	<g>
		<path fill="#E48225" d="M373.4,44c0,0,48,33,12,110.9C385.4,155,335.9,105.5,373.4,44z"/>
		<path fill="#84BB41" d="M246.4,420.1c0,0,2.5-58.2,87.7-69C334.1,351.1,318.4,419.3,246.4,420.1z"/>
		<path fill="#0F85B0" d="M266.1,324.8c0,0,24.3-52.9,107.3-30.7C373.4,294.1,333.1,351.3,266.1,324.8z"/>
		<path fill="#ED1E2A" d="M420,184.1c0,0,37,44.9-19,110C400.9,294.1,367,232.9,420,184.1z"/>
		<path fill="#66C3D1" d="M354.1,154.6c0,0,46.9,34.5,8.6,111.3C362.7,265.9,314.8,214.9,354.1,154.6z"/>
		<path fill="#DAC326" d="M251.3,151.8c0,0,58.2-1.6,75,82.6C326.3,234.4,257.2,223.6,251.3,151.8z"/>
		<path fill="#A5478E" d="M214.8,256.4c0,0,39.6-42.7,111.5,4.3C326.3,260.7,270.1,302.4,214.8,256.4z"/>
		<path fill="#064A61" d="M610,376c-7.1-39.1-18.6-77.4-28.1-116.1c-3.8-15.5-7.4-31-11.5-46.4c-1.8-6.7-6.1-12-13.9-10.7
			c-7.3,1.3-10.9,6.7-11.1,14c-0.1,4.5,0.2,8.9,0.5,13.5c1,16.1,0.6,38.6,1.6,54.7c-5.2-22.7-14.1-54.8-20.2-79.3
			c-2.7-11.1-8.5-18.7-21-15.5c-11.8,2.9-15,10.9-12.3,22.9c4.6,20.8,8.4,51.1,12.2,72c-11.9-22.7-21-46.3-29.9-65.1
			c-4-8.5-10.9-11.6-19.7-9c-8.9,2.6-13,9.3-12.1,18.2c0.6,5.3,2.4,10.7,4.3,15.7c7.4,19.4,15,38.8,23.6,60.8
			c-18.2-6.6-54.1,5.3-59.6,17.9c-6,13.8-0.1,18.2-0.1,18c9,8.5,19.2,7.3,29.7,6.6c27.2-1.8,43.7,9.1,46.9,30.6
			c3.6,24.2-13.6,51.6-36,56.9c-14,3.3-27.7,2.5-40.1-5.8c-9.5-6.4-14.5-15.8-12.7-26.8c1.7-10.1,6.6-19.8,9.5-29.7
			c2.8-9.6-1.8-23.2-0.3-33.9c-5.1,4.9-15.3,2-22.9,3.4c-7.1,1.3-13.6,3.6-18.9,8.3c-25,22.5-37.5,50.1-32.8,84
			c8.2,58.9,65,127.4,151.8,113.7c44.3-7,83.1-25,107.4-65.5C614.4,449.8,616.7,412.8,610,376z M378.1,370.6c-4,0-7.2-3.2-7.2-7.2
			c0-4,3.2-7.3,7.2-7.3c4,0,7.3,3.2,7.3,7.3C385.4,367.4,382.2,370.6,378.1,370.6z"/>
	</g>
	<g>
		<rect x="662.3" y="321.1" fill="#064A61" width="738.9" height="137.3"/>
		<g>
			<polygon fill="#E48225" points="1015.9,389.5 978.9,389.5 978.9,399.4 1019.8,399.4 			"/>
			<rect x="842" y="423.6" fill="#DAC326" width="37.6" height="10"/>
			<polygon fill="#66C3D1" points="792.7,423.6 758.7,423.6 747.6,433.6 792.7,433.6 			"/>
			<g>
				<path fill="#FFFFFF" d="M730.3,401.6c0.3,16.1,9.3,22.8,19.9,22.8c7.5,0,12.1-1.5,16-3.4l1.8,8.5c-3.7,1.9-10,4.1-19.2,4.1
					c-17.8,0-28.5-13.3-28.5-33.1c0-19.8,10.3-35.4,27.2-35.4c18.9,0,23.9,18.8,23.9,30.9c0,2.4-0.2,4.3-0.4,5.5H730.3z M761.1,393
					c0.1-7.6-2.8-19.4-14.6-19.4c-10.6,0-15.3,11.1-16.1,19.4H761.1z"/>
			</g>
			<g>
				<path fill="#FFFFFF" d="M904.1,432.6l-0.9-8.7h-0.4c-3.6,5.4-10.5,10.3-19.6,10.3c-13,0-19.6-9.9-19.6-19.9
					c0-16.7,13.8-25.8,38.6-25.7v-1.4c0-5.7-1.5-16-14.6-16c-6,0-12.2,2-16.7,5.1l-2.6-8.3c5.3-3.7,13-6.1,21.1-6.1
					c19.6,0,24.4,14.4,24.4,28.2V416c0,6,0.3,11.8,1.1,16.6H904.1z M902.4,397.3c-12.7-0.3-27.2,2.1-27.2,15.6c0,8.1,5,12,11,12
					c8.3,0,13.7-5.7,15.5-11.6c0.4-1.3,0.7-2.7,0.7-4V397.3z"/>
			</g>
			<g>
				<path fill="#FFFFFF" d="M790.5,433.6v-68.4h16.1l9.6,29.2l9.6-29.2H842v68.4h-10v-53.8l-10.6,33.4h-10.4l-10.5-33.4v53.8H790.5z
					"/>
			</g>
			<g>
				<path fill="#FFFFFF" d="M936.4,365.2h10.8v37c0,5.9,0.1,9.7,0.4,11.4c0.5,2.8,1.6,5.1,3.3,6.7c1.7,1.7,4.1,2.5,7.1,2.5
					c3.1,0,5.4-0.8,6.9-2.4c1.6-1.6,2.5-3.6,2.8-5.9c0.3-2.3,0.5-6.2,0.5-11.6v-37.8h10.8v35.9c0,8.2-0.3,14-0.9,17.4
					c-0.6,3.4-1.7,6.2-3.2,8.6c-1.6,2.3-3.6,4.2-6.3,5.6c-2.6,1.4-6,2.1-10.3,2.1c-5.1,0-9-0.8-11.6-2.3c-2.6-1.5-4.7-3.5-6.2-5.9
					c-1.5-2.4-2.5-4.9-3-7.6c-0.7-3.9-1.1-9.7-1.1-17.3L936.4,365.2L936.4,365.2z M951,354.4l8.5-20.9h19.4L962,354.4H951z"/>
			</g>
			<g>
				<path fill="#FFFFFF" d="M1007.5,411.3l10.5-1.3c0.6,4.5,1.9,7.8,3.9,9.9c1.9,2.1,4.5,3.2,7.8,3.2c3.5,0,6.1-0.9,7.9-2.8
					c1.8-1.9,2.6-4.1,2.6-6.6c0-1.6-0.4-3-1.1-4.1c-0.8-1.1-2-2.1-3.9-3c-1.2-0.5-4.1-1.5-8.6-3c-5.8-1.8-9.8-4.1-12.2-6.8
					c-3.3-3.7-4.9-8.3-4.9-13.7c0-3.5,0.8-6.7,2.3-9.8c1.5-3,3.8-5.3,6.7-6.9c2.9-1.6,6.4-2.4,10.5-2.4c6.7,0,11.7,1.9,15.1,5.7
					c3.4,3.7,5.1,8.7,5.3,15l-10.8,0.6c-0.5-3.5-1.5-6-3-7.6c-1.5-1.5-3.8-2.3-6.8-2.3c-3.1,0-5.6,0.8-7.3,2.4
					c-1.1,1.1-1.7,2.5-1.7,4.3c0,1.6,0.5,3,1.6,4.2c1.4,1.4,4.7,3,9.9,4.5c5.2,1.6,9.1,3.2,11.6,4.9c2.5,1.7,4.5,4,5.9,7
					c1.4,2.9,2.1,6.5,2.1,10.9c0,3.9-0.8,7.6-2.6,11c-1.7,3.4-4.1,6-7.2,7.6c-3.1,1.7-7,2.5-11.6,2.5c-6.7,0-11.9-2-15.5-6
					C1010.3,424.8,1008.2,419,1007.5,411.3z"/>
			</g>
		</g>
		<g>
			<polygon fill="#A5478E" points="1207.1,419.3 1135.6,419.3 1130.5,429.3 1207.1,429.3 			"/>
			<polygon fill="#E48225" points="1267.3,360 1219.3,360 1212.3,370 1260.3,370 			"/>
			<polygon fill="#0F85B0" points="1325.7,419.3 1282.1,419.3 1282.1,429.3 1330.1,429.3 			"/>
			<path fill="#FFFFFF" d="M1178.9,360h10.7v36.9c0,5.9,0.2,9.7,0.4,11.4c0.5,2.8,1.6,5,3.3,6.7c1.7,1.7,4.1,2.5,7.1,2.5
				c3,0,5.3-0.8,6.9-2.4c1.5-1.6,2.5-3.6,2.8-5.9c0.3-2.3,0.5-6.2,0.5-11.6V360h10.7v35.8c0,8.2-0.3,13.9-0.9,17.3
				c-0.6,3.4-1.7,6.2-3.2,8.6c-1.6,2.3-3.7,4.2-6.3,5.6c-2.6,1.4-6,2.1-10.3,2.1c-5.1,0-8.9-0.8-11.5-2.3c-2.6-1.5-4.7-3.5-6.2-5.8
				c-1.5-2.4-2.5-4.9-3-7.6c-0.7-3.9-1-9.7-1-17.3V360z"/>
			<g>
				<path fill="#FFFFFF" d="M1353,429.3l-0.9-8.5h-0.4c-3.6,5.3-10.6,10-19.8,10c-13.1,0-19.8-9.6-19.8-19.4
					c0-16.3,13.9-25.2,39-25.1V385c0-5.5-1.5-15.6-14.7-15.6c-6,0-12.3,1.9-16.9,5l-2.7-8.1c5.4-3.6,13.1-6,21.3-6
					c19.8,0,24.6,14.1,24.6,27.6v25.2c0,5.9,0.3,11.6,1.1,16.2L1353,429.3L1353,429.3z M1351.3,394.8c-12.9-0.3-27.5,2.1-27.5,15.2
					c0,8,5.1,11.7,11.1,11.7c8.4,0,13.8-5.6,15.7-11.3c0.4-1.2,0.7-2.6,0.7-3.9V394.8z"/>
			</g>
			<g>
				<g>
					<path fill="#FFFFFF" d="M1152.4,371.3c-4-4.6-8.4-6.9-13.4-6.9c-3.5,0-7.4,1.3-11.6,4c-4.2,2.7-7.9,6.6-10.9,11.9v-42.2h-9.8
						v91.1h9.8c1.1,0.1,2,0.2,2.6,0.3c3.8,0.4,6.6,0.6,8.5,0.6c6.5,0,11.9-1.6,16.3-5c4.4-3.3,7.9-7.9,10.5-13.6
						c2.6-5.8,3.9-12.2,3.9-19.5C1158.3,382.8,1156.4,375.9,1152.4,371.3z M1147.6,393.4c0,8.7-2,15.5-6.1,20.4
						c-4.1,5-9.1,7.5-15.1,7.5c-3,0-6.3-0.5-9.9-1.4v-27c3-5.6,6.3-10.1,10-13.4c3.7-3.3,7.1-5,10.2-5c2.8,0,5.4,1.6,7.6,4.8
						C1146.5,382.4,1147.6,387.1,1147.6,393.4z"/>
				</g>
			</g>
			<path fill="#FFFFFF" d="M1279.6,359.7c-1-0.1-1.8-0.2-2.3-0.3c-3.4-0.4-6-0.6-7.7-0.6c-5.8,0-10.7,1.5-14.7,4.5
				c-3.9,3-7.1,7.1-9.5,12.2c-2.4,5.2-3.5,11-3.5,17.6c0,8.4,1.8,14.6,5.3,18.7c3.6,4.1,7.6,6.1,12,6.1c3.2,0,6.7-1.2,10.5-3.6
				c3.8-2.5,7.1-6,9.8-10.7v8.1c0,3.7-0.3,6.8-0.8,9.1c-0.5,2.3-1.6,4.3-3,6c-1.5,1.8-3.5,3.1-5.9,4c-2.4,0.9-5,1.4-7.7,1.4
				c-3.5,0-7-0.7-10.7-2.1c-3.7-1.4-6.8-3-9.3-4.9v9.6c6.6,3.5,13.2,5.3,19.6,5.3c6.5,0,12-1.4,16.5-4.4c4.5-2.9,7.4-6.9,8.7-12
				c0.5-2.2,0.9-4.3,1.2-6.4c0.2-2.1,0.4-7.9,0.4-17.5v-40.1L1279.6,359.7L1279.6,359.7z M1277.8,369.5V392
				c-2.5,4.6-5.3,8.3-8.4,11.1c-3,2.7-5.7,4-8,4c-1.9,0-3.7-1.2-5.3-3.5c-1.8-2.5-2.7-6.5-2.7-11.7c0-7.3,1.7-13.1,5.1-17.3
				c3.3-4.1,7.3-6.1,12.3-6.1C1272.9,368.6,1275.3,368.9,1277.8,369.5z"/>
		</g>
	</g>
</g>
</svg>
