<?xml version="1.0" encoding="utf-8"?>
<!-- Generator: Adobe Illustrator 18.1.0, SVG Export Plug-In . SVG Version: 6.00 Build 0)  -->
<svg version="1.1" id="Layer_1" xmlns="http://www.w3.org/2000/svg" xmlns:xlink="http://www.w3.org/1999/xlink" x="0px" y="0px"
	 viewBox="0 0 295 366.3" enable-background="new 0 0 295 366.3" xml:space="preserve">
<g>
	<g>
		<path fill="#E48225" d="M111.5,3c0,0,33,22.7,8.3,76.3C119.7,79.3,85.7,45.3,111.5,3z"/>
		<path fill="#84BB41" d="M24.1,261.7c0,0,1.7-40,60.3-47.5C84.5,214.2,73.7,261.1,24.1,261.7z"/>
		<path fill="#0F85B0" d="M37.7,196.1c0,0,16.7-36.4,73.8-21.1C111.5,175,83.8,214.4,37.7,196.1z"/>
		<path fill="#ED1E2A" d="M143.5,99.4c0,0,25.4,30.9-13.1,75.7C130.4,175,107.1,132.9,143.5,99.4z"/>
		<path fill="#66C3D1" d="M98.2,79.1c0,0,32.3,23.7,5.9,76.6C104.1,155.6,71.2,120.5,98.2,79.1z"/>
		<path fill="#DAC326" d="M27.5,77.1c0,0,40-1.1,51.6,56.8C79.1,134,31.6,126.5,27.5,77.1z"/>
		<path fill="#A5478E" d="M2.4,149.1c0,0,27.2-29.4,76.7,3C79.1,152.1,40.4,180.7,2.4,149.1z"/>
		<path fill="#064A61" d="M274.2,231.4c-4.9-26.9-12.8-53.2-19.3-79.9c-2.6-10.7-5.1-21.3-7.9-31.9c-1.2-4.6-4.2-8.3-9.6-7.4
			c-5,0.9-7.5,4.6-7.6,9.6c-0.1,3.1,0.1,6.1,0.3,9.3c0.7,11.1,0.4,26.5,1.1,37.6c-3.6-15.6-9.7-37.7-13.9-54.5
			c-1.9-7.6-5.8-12.9-14.4-10.7c-8.1,2-10.3,7.5-8.5,15.8c3.2,14.3,5.8,35.1,8.4,49.5c-8.2-15.6-14.4-31.8-20.6-44.8
			c-2.8-5.8-7.5-8-13.6-6.2c-6.1,1.8-8.9,6.4-8.3,12.5c0.4,3.6,1.7,7.4,3,10.8c5.1,13.3,10.3,26.7,16.2,41.8
			c-12.5-4.5-37.2,3.6-41,12.3c-4.1,9.5-0.1,12.5-0.1,12.4c6.2,5.8,13.2,5,20.4,4.5c18.7-1.2,30.1,6.3,32.3,21
			c2.5,16.6-9.4,35.5-24.8,39.1c-9.6,2.3-19.1,1.7-27.6-4c-6.5-4.4-10-10.9-8.7-18.4c1.2-6.9,4.5-13.6,6.5-20.4
			c1.9-6.6-1.2-16-0.2-23.3c-3.5,3.4-10.5,1.4-15.8,2.3c-4.9,0.9-9.4,2.5-13,5.7c-17.2,15.5-25.8,34.5-22.6,57.8
			c5.6,40.5,44.7,87.6,104.4,78.2c30.5-4.8,57.2-17.2,73.9-45.1C277.3,282.1,278.8,256.7,274.2,231.4z M114.7,227.6
			c-2.8,0-5-2.2-5-5c0-2.8,2.2-5,5-5s5,2.2,5,5C119.7,225.4,117.5,227.6,114.7,227.6z"/>
	</g>
</g>
</svg>
