<?xml version="1.0" encoding="utf-8"?>
<!-- Generator: Adobe Illustrator 18.1.0, SVG Export Plug-In . SVG Version: 6.00 Build 0)  -->
<svg version="1.1" id="Layer_1" xmlns="http://www.w3.org/2000/svg" xmlns:xlink="http://www.w3.org/1999/xlink" x="0px" y="0px"
	 viewBox="0 0 841.9 595.3" enable-background="new 0 0 841.9 595.3" xml:space="preserve">
<path fill="#FFFFFF" stroke="#FFFFFF" stroke-miterlimit="10" d="M188.7,192.3h446.5c20.5,0,37.2-16.7,37.2-37.2
	s-16.7-37.2-37.2-37.2H188.7c-20.5,0-37.2,16.7-37.2,37.2S168.3,192.3,188.7,192.3z M635.2,266.7H188.7c-20.5,0-37.2,16.7-37.2,37.2
	s16.7,37.2,37.2,37.2h446.5c20.5,0,37.2-16.7,37.2-37.2S655.6,266.7,635.2,266.7z M635.2,415.6H188.7c-20.5,0-37.2,16.7-37.2,37.2
	s16.7,37.2,37.2,37.2h446.5c20.5,0,37.2-16.7,37.2-37.2S655.6,415.6,635.2,415.6z"/>
</svg>
